<?xml version="1.0" encoding="utf-8"?>
<svg version="1.1" id="b236b4f2-4a17-4972-b7d6-fc285796cd1e"
      xmlns="http://www.w3.org/2000/svg" x="0px" y="0px" viewBox="0 0 22 22"
      style="enable-background:new 0 0 22 22;" xml:space="preserve">
<style type="text/css">
	.st0{fill:none;stroke:#EFF0F2;stroke-width:2;stroke-linecap:round;stroke-linejoin:round;}
</style>
    <g>
	<path class="st0"
          d="M20,8c0-3.3-2.7-6-6-6c-3.3,0-6,2.7-6,6h0v3c0,0,0,0,0,0c0-1.7,1.3-3,3-3h0c0,0,0,0,0,0h1.7H14v0H20z"/>
        <path class="st0"
              d="M11,14c-1.7,0-3-1.3-3-3v0c0,0,0,0,0,0V8h0c0-3.3,2.7-6,6-6H8C4.7,2,2,4.7,2,8c0,3.3,2.7,6,6,6h1.3H11z"/>
        <path class="st0"
              d="M2,14c0,3.3,2.7,6,6,6c3.3,0,6-2.7,6-6h0v-3c0,0,0,0,0,0c0,1.7-1.3,3-3,3h0c0,0,0,0,0,0H9.3H8v0H2z"/>
        <path class="st0"
              d="M11,8c1.7,0,3,1.3,3,3v0c0,0,0,0,0,0v3h0c0,3.3-2.7,6-6,6h6c3.3,0,6-2.7,6-6c0-3.3-2.7-6-6-6h-1.3H11z"/>
</g>
</svg>