<?xml version="1.0" standalone="no"?>
<!DOCTYPE svg PUBLIC "-//W3C//DTD SVG 20010904//EN"
 "http://www.w3.org/TR/2001/REC-SVG-20010904/DTD/svg10.dtd">
<svg version="1.0" xmlns="http://www.w3.org/2000/svg"
 width="769.000000pt" height="769.000000pt" viewBox="0 0 769.000000 769.000000"
 preserveAspectRatio="xMidYMid meet">
<metadata>
Created by potrace 1.14, written by Peter Selinger 2001-2017
</metadata>
<g transform="translate(0.000000,769.000000) scale(0.100000,-0.100000)"
fill="#000000" stroke="none">
<path d="M2369 7686 c-2 -2 -38 -7 -78 -10 -41 -4 -78 -9 -81 -11 -3 -2 -33
-7 -65 -10 -123 -14 -341 -76 -555 -157 -87 -33 -326 -160 -430 -230 -161
-108 -267 -194 -400 -328 -208 -208 -362 -423 -490 -685 -145 -294 -228 -597
-256 -920 -7 -85 -7 -368 0 -421 3 -22 8 -64 11 -94 5 -47 26 -169 39 -235 48
-234 151 -504 277 -722 61 -108 188 -296 231 -343 13 -14 36 -41 52 -60 86
-105 241 -253 369 -353 359 -281 792 -461 1247 -521 93 -12 -24 -14 -1066 -15
l-1172 -1 3 -43 c2 -23 6 -89 9 -147 4 -58 8 -116 10 -130 3 -14 10 -59 16
-100 147 -933 835 -1730 1745 -2023 113 -36 302 -81 390 -93 28 -3 59 -8 69
-10 11 -2 65 -7 120 -11 129 -9 2839 -9 2966 0 744 54 1442 448 1882 1062 228
318 373 663 442 1055 26 146 27 159 31 400 5 330 -27 554 -120 835 -180 546
-533 1012 -1010 1332 -171 115 -289 175 -552 282 -117 47 -473 131 -559 131
-12 0 -25 3 -27 8 -3 4 503 7 1124 7 622 0 1135 2 1141 6 10 7 6 235 -6 299
-3 14 -10 61 -16 105 -25 174 -87 393 -161 571 -329 790 -1018 1359 -1856
1533 -98 20 -124 24 -263 41 -70 8 -3002 14 -3011 6z m1671 -2577 c535 -78
963 -493 1066 -1036 17 -91 22 -296 10 -388 -77 -559 -499 -998 -1054 -1096
-98 -18 -299 -19 -402 -4 -637 98 -1103 655 -1085 1295 4 117 8 149 35 266 84
361 336 677 672 842 95 47 219 92 293 106 17 4 41 9 55 12 14 3 61 8 105 11
44 3 81 6 82 7 6 5 158 -6 223 -15z"/>
</g>
</svg>
